<svg version="1.1" xmlns="http://www.w3.org/2000/svg" viewBox="0 0 1947.46875 2120.5714285714284" width="1947.46875" height="2120.5714285714284">
  <!-- svg-source:excalidraw -->
  
  <defs>
    <style class="style-fonts">
      @font-face {
        font-family: "Virgil";
        src: url("https://excalidraw.com/Virgil.woff2");
      }
      @font-face {
        font-family: "Cascadia";
        src: url("https://excalidraw.com/Cascadia.woff2");
      }
    </style>
  </defs>
  <rect x="0" y="0" width="1947.46875" height="2120.5714285714284" fill="#ffffff"></rect><g stroke-linecap="round" transform="translate(10 10) rotate(0 137.49999999999997 48.5)"><path d="M24.25 0 M24.25 0 C108.13 0, 192.01 0, 250.75 0 M24.25 0 C105.64 0, 187.03 0, 250.75 0 M250.75 0 C266.92 0, 275 8.08, 275 24.25 M250.75 0 C266.92 0, 275 8.08, 275 24.25 M275 24.25 C275 43.41, 275 62.57, 275 72.75 M275 24.25 C275 34.6, 275 44.95, 275 72.75 M275 72.75 C275 88.92, 266.92 97, 250.75 97 M275 72.75 C275 88.92, 266.92 97, 250.75 97 M250.75 97 C185.88 97, 121.02 97, 24.25 97 M250.75 97 C164.4 97, 78.05 97, 24.25 97 M24.25 97 C8.08 97, 0 88.92, 0 72.75 M24.25 97 C8.08 97, 0 88.92, 0 72.75 M0 72.75 C0 60.97, 0 49.19, 0 24.25 M0 72.75 C0 56.2, 0 39.65, 0 24.25 M0 24.25 C0 8.08, 8.08 0, 24.25 0 M0 24.25 C0 8.08, 8.08 0, 24.25 0" stroke="#000000" stroke-width="1" fill="none"></path></g><g transform="translate(63.125 36.89999999999998) rotate(0 84.37499999999997 21.599999999999994)"><text x="84.375" y="0" font-family="Cascadia, Segoe UI Emoji" font-size="36px" fill="#000000" text-anchor="middle" style="white-space: pre;" direction="ltr" dominant-baseline="text-before-edge">Document</text></g><g stroke-linecap="round" transform="translate(492.99999999999994 348.57142857142856) rotate(0 137.5 48.5)"><path d="M24.25 0 M24.25 0 C102.84 0, 181.43 0, 250.75 0 M24.25 0 C83.47 0, 142.7 0, 250.75 0 M250.75 0 C266.92 0, 275 8.08, 275 24.25 M250.75 0 C266.92 0, 275 8.08, 275 24.25 M275 24.25 C275 40.86, 275 57.48, 275 72.75 M275 24.25 C275 40.43, 275 56.6, 275 72.75 M275 72.75 C275 88.92, 266.92 97, 250.75 97 M275 72.75 C275 88.92, 266.92 97, 250.75 97 M250.75 97 C164.24 97, 77.73 97, 24.25 97 M250.75 97 C175.88 97, 101.01 97, 24.25 97 M24.25 97 C8.08 97, 0 88.92, 0 72.75 M24.25 97 C8.08 97, 0 88.92, 0 72.75 M0 72.75 C0 57.59, 0 42.43, 0 24.25 M0 72.75 C0 55.59, 0 38.43, 0 24.25 M0 24.25 C0 8.08, 8.08 0, 24.25 0 M0 24.25 C0 8.08, 8.08 0, 24.25 0" stroke="#000000" stroke-width="1" fill="none"></path></g><g transform="translate(567.21875 375.47142857142853) rotate(0 63.28125 21.600000000000023)"><text x="63.28125" y="0" font-family="Cascadia, Segoe UI Emoji" font-size="36px" fill="#000000" text-anchor="middle" style="white-space: pre;" direction="ltr" dominant-baseline="text-before-edge">Header</text></g><g stroke-linecap="round" transform="translate(716 495.57142857142856) rotate(0 137.5 48.5)"><path d="M24.25 0 M24.25 0 C80.25 0, 136.25 0, 250.75 0 M24.25 0 C113.09 0, 201.93 0, 250.75 0 M250.75 0 C266.92 0, 275 8.08, 275 24.25 M250.75 0 C266.92 0, 275 8.08, 275 24.25 M275 24.25 C275 39.68, 275 55.1, 275 72.75 M275 24.25 C275 36.63, 275 49, 275 72.75 M275 72.75 C275 88.92, 266.92 97, 250.75 97 M275 72.75 C275 88.92, 266.92 97, 250.75 97 M250.75 97 C172.88 97, 95.01 97, 24.25 97 M250.75 97 C177.06 97, 103.37 97, 24.25 97 M24.25 97 C8.08 97, 0 88.92, 0 72.75 M24.25 97 C8.08 97, 0 88.92, 0 72.75 M0 72.75 C0 59.96, 0 47.16, 0 24.25 M0 72.75 C0 57.39, 0 42.03, 0 24.25 M0 24.25 C0 8.08, 8.08 0, 24.25 0 M0 24.25 C0 8.08, 8.08 0, 24.25 0" stroke="#000000" stroke-width="1" fill="none"></path></g><g transform="translate(832.40625 522.4714285714285) rotate(0 21.09375 21.600000000000023)"><text x="21.09375" y="0" font-family="Cascadia, Segoe UI Emoji" font-size="36px" fill="#000000" text-anchor="middle" style="white-space: pre;" direction="ltr" dominant-baseline="text-before-edge">h1</text></g><g stroke-linecap="round" transform="translate(719 772.5714285714286) rotate(0 137.5 48.5)"><path d="M24.25 0 M24.25 0 C102.17 0, 180.09 0, 250.75 0 M24.25 0 C99.79 0, 175.33 0, 250.75 0 M250.75 0 C266.92 0, 275 8.08, 275 24.25 M250.75 0 C266.92 0, 275 8.08, 275 24.25 M275 24.25 C275 35.27, 275 46.29, 275 72.75 M275 24.25 C275 36.19, 275 48.13, 275 72.75 M275 72.75 C275 88.92, 266.92 97, 250.75 97 M275 72.75 C275 88.92, 266.92 97, 250.75 97 M250.75 97 C172.95 97, 95.15 97, 24.25 97 M250.75 97 C203.87 97, 156.98 97, 24.25 97 M24.25 97 C8.08 97, 0 88.92, 0 72.75 M24.25 97 C8.08 97, 0 88.92, 0 72.75 M0 72.75 C0 59, 0 45.25, 0 24.25 M0 72.75 C0 61.73, 0 50.71, 0 24.25 M0 24.25 C0 8.08, 8.08 0, 24.25 0 M0 24.25 C0 8.08, 8.08 0, 24.25 0" stroke="#000000" stroke-width="1" fill="none"></path></g><g transform="translate(845.953125 799.4714285714285) rotate(0 10.546875 21.600000000000023)"><text x="10.546875" y="0" font-family="Cascadia, Segoe UI Emoji" font-size="36px" fill="#000000" text-anchor="middle" style="white-space: pre;" direction="ltr" dominant-baseline="text-before-edge">p</text></g><g stroke-linecap="round" transform="translate(829 626.5714285714286) rotate(0 137.5 48.5)"><path d="M24.25 0 M24.25 0 C110.12 0, 195.99 0, 250.75 0 M24.25 0 C74.37 0, 124.5 0, 250.75 0 M250.75 0 C266.92 0, 275 8.08, 275 24.25 M250.75 0 C266.92 0, 275 8.08, 275 24.25 M275 24.25 C275 38.94, 275 53.64, 275 72.75 M275 24.25 C275 40.19, 275 56.14, 275 72.75 M275 72.75 C275 88.92, 266.92 97, 250.75 97 M275 72.75 C275 88.92, 266.92 97, 250.75 97 M250.75 97 C160.57 97, 70.4 97, 24.25 97 M250.75 97 C193.23 97, 135.72 97, 24.25 97 M24.25 97 C8.08 97, 0 88.92, 0 72.75 M24.25 97 C8.08 97, 0 88.92, 0 72.75 M0 72.75 C0 56.93, 0 41.11, 0 24.25 M0 72.75 C0 60.48, 0 48.22, 0 24.25 M0 24.25 C0 8.08, 8.08 0, 24.25 0 M0 24.25 C0 8.08, 8.08 0, 24.25 0" stroke="#000000" stroke-width="1" fill="none"></path></g><g transform="translate(839.9375 653.4714285714285) rotate(0 126.5625 21.600000000000023)"><text x="126.5625" y="0" font-family="Cascadia, Segoe UI Emoji" font-size="36px" fill="#000000" text-anchor="middle" style="white-space: pre;" direction="ltr" dominant-baseline="text-before-edge">text content</text></g><g stroke-linecap="round" transform="translate(839 901.5714285714286) rotate(0 137.5 48.5)"><path d="M24.25 0 M24.25 0 C114.68 0, 205.11 0, 250.75 0 M24.25 0 C99.77 0, 175.3 0, 250.75 0 M250.75 0 C266.92 0, 275 8.08, 275 24.25 M250.75 0 C266.92 0, 275 8.08, 275 24.25 M275 24.25 C275 35.71, 275 47.16, 275 72.75 M275 24.25 C275 40.68, 275 57.1, 275 72.75 M275 72.75 C275 88.92, 266.92 97, 250.75 97 M275 72.75 C275 88.92, 266.92 97, 250.75 97 M250.75 97 C164.9 97, 79.04 97, 24.25 97 M250.75 97 C161.81 97, 72.88 97, 24.25 97 M24.25 97 C8.08 97, 0 88.92, 0 72.75 M24.25 97 C8.08 97, 0 88.92, 0 72.75 M0 72.75 C0 59.81, 0 46.86, 0 24.25 M0 72.75 C0 58.72, 0 44.68, 0 24.25 M0 24.25 C0 8.08, 8.08 0, 24.25 0 M0 24.25 C0 8.08, 8.08 0, 24.25 0" stroke="#000000" stroke-width="1" fill="none"></path></g><g transform="translate(849.9375 928.4714285714286) rotate(0 126.5625 21.600000000000023)"><text x="126.5625" y="0" font-family="Cascadia, Segoe UI Emoji" font-size="36px" fill="#000000" text-anchor="middle" style="white-space: pre;" direction="ltr" dominant-baseline="text-before-edge">text content</text></g><g stroke-linecap="round" transform="translate(494.99999999999994 1046.5714285714284) rotate(0 137.5 48.5)"><path d="M24.25 0 M24.25 0 C81.92 0, 139.6 0, 250.75 0 M24.25 0 C79.55 0, 134.85 0, 250.75 0 M250.75 0 C266.92 0, 275 8.08, 275 24.25 M250.75 0 C266.92 0, 275 8.08, 275 24.25 M275 24.25 C275 42.77, 275 61.29, 275 72.75 M275 24.25 C275 40.48, 275 56.7, 275 72.75 M275 72.75 C275 88.92, 266.92 97, 250.75 97 M275 72.75 C275 88.92, 266.92 97, 250.75 97 M250.75 97 C198.31 97, 145.88 97, 24.25 97 M250.75 97 C176.38 97, 102.01 97, 24.25 97 M24.25 97 C8.08 97, 0 88.92, 0 72.75 M24.25 97 C8.08 97, 0 88.92, 0 72.75 M0 72.75 C0 57.9, 0 43.05, 0 24.25 M0 72.75 C0 55.11, 0 37.47, 0 24.25 M0 24.25 C0 8.08, 8.08 0, 24.25 0 M0 24.25 C0 8.08, 8.08 0, 24.25 0" stroke="#000000" stroke-width="1" fill="none"></path></g><g transform="translate(600.859375 1073.4714285714285) rotate(0 31.640625 21.600000000000023)"><text x="31.640625" y="0" font-family="Cascadia, Segoe UI Emoji" font-size="36px" fill="#000000" text-anchor="middle" style="white-space: pre;" direction="ltr" dominant-baseline="text-before-edge">Nav</text></g><g stroke-linecap="round" transform="translate(716 1194.5714285714284) rotate(0 137.5 48.5)"><path d="M24.25 0 M24.25 0 C101.03 0, 177.8 0, 250.75 0 M24.25 0 C80.9 0, 137.56 0, 250.75 0 M250.75 0 C266.92 0, 275 8.08, 275 24.25 M250.75 0 C266.92 0, 275 8.08, 275 24.25 M275 24.25 C275 34.27, 275 44.3, 275 72.75 M275 24.25 C275 40.31, 275 56.37, 275 72.75 M275 72.75 C275 88.92, 266.92 97, 250.75 97 M275 72.75 C275 88.92, 266.92 97, 250.75 97 M250.75 97 C200.73 97, 150.71 97, 24.25 97 M250.75 97 C160.64 97, 70.53 97, 24.25 97 M24.25 97 C8.08 97, 0 88.92, 0 72.75 M24.25 97 C8.08 97, 0 88.92, 0 72.75 M0 72.75 C0 57.25, 0 41.75, 0 24.25 M0 72.75 C0 58.96, 0 45.17, 0 24.25 M0 24.25 C0 8.08, 8.08 0, 24.25 0 M0 24.25 C0 8.08, 8.08 0, 24.25 0" stroke="#000000" stroke-width="1" fill="none"></path></g><g transform="translate(832.40625 1221.4714285714285) rotate(0 21.09375 21.600000000000023)"><text x="21.09375" y="0" font-family="Cascadia, Segoe UI Emoji" font-size="36px" fill="#000000" text-anchor="middle" style="white-space: pre;" direction="ltr" dominant-baseline="text-before-edge">ul</text></g><g stroke-linecap="round" transform="translate(829 1341.5714285714284) rotate(0 137.5 48.5)"><path d="M24.25 0 M24.25 0 C96.24 0, 168.23 0, 250.75 0 M24.25 0 C96.83 0, 169.4 0, 250.75 0 M250.75 0 C266.92 0, 275 8.08, 275 24.25 M250.75 0 C266.92 0, 275 8.08, 275 24.25 M275 24.25 C275 40.03, 275 55.81, 275 72.75 M275 24.25 C275 40.49, 275 56.72, 275 72.75 M275 72.75 C275 88.92, 266.92 97, 250.75 97 M275 72.75 C275 88.92, 266.92 97, 250.75 97 M250.75 97 C174.63 97, 98.5 97, 24.25 97 M250.75 97 C163.39 97, 76.02 97, 24.25 97 M24.25 97 C8.08 97, 0 88.92, 0 72.75 M24.25 97 C8.08 97, 0 88.92, 0 72.75 M0 72.75 C0 58.01, 0 43.27, 0 24.25 M0 72.75 C0 55.19, 0 37.63, 0 24.25 M0 24.25 C0 8.08, 8.08 0, 24.25 0 M0 24.25 C0 8.08, 8.08 0, 24.25 0" stroke="#000000" stroke-width="1" fill="none"></path></g><g transform="translate(945.40625 1368.4714285714285) rotate(0 21.09375 21.600000000000023)"><text x="21.09375" y="0" font-family="Cascadia, Segoe UI Emoji" font-size="36px" fill="#000000" text-anchor="middle" style="white-space: pre;" direction="ltr" dominant-baseline="text-before-edge">li</text></g><g stroke-linecap="round" transform="translate(984 1488.5714285714284) rotate(0 137.5 48.5)"><path d="M24.25 0 M24.25 0 C92.05 0, 159.85 0, 250.75 0 M24.25 0 C99.25 0, 174.24 0, 250.75 0 M250.75 0 C266.92 0, 275 8.08, 275 24.25 M250.75 0 C266.92 0, 275 8.08, 275 24.25 M275 24.25 C275 41.07, 275 57.89, 275 72.75 M275 24.25 C275 34.79, 275 45.33, 275 72.75 M275 72.75 C275 88.92, 266.92 97, 250.75 97 M275 72.75 C275 88.92, 266.92 97, 250.75 97 M250.75 97 C191.61 97, 132.48 97, 24.25 97 M250.75 97 C169.15 97, 87.55 97, 24.25 97 M24.25 97 C8.08 97, 0 88.92, 0 72.75 M24.25 97 C8.08 97, 0 88.92, 0 72.75 M0 72.75 C0 57.36, 0 41.98, 0 24.25 M0 72.75 C0 62.26, 0 51.76, 0 24.25 M0 24.25 C0 8.08, 8.08 0, 24.25 0 M0 24.25 C0 8.08, 8.08 0, 24.25 0" stroke="#000000" stroke-width="1" fill="none"></path></g><g transform="translate(1110.953125 1515.4714285714285) rotate(0 10.546875 21.600000000000023)"><text x="10.546875" y="0" font-family="Cascadia, Segoe UI Emoji" font-size="36px" fill="#000000" text-anchor="middle" style="white-space: pre;" direction="ltr" dominant-baseline="text-before-edge">a</text></g><g stroke-linecap="round" transform="translate(1138 1611.5714285714284) rotate(0 137.5 48.5)"><path d="M24.25 0 M24.25 0 C82.6 0, 140.95 0, 250.75 0 M24.25 0 C93.78 0, 163.31 0, 250.75 0 M250.75 0 C266.92 0, 275 8.08, 275 24.25 M250.75 0 C266.92 0, 275 8.08, 275 24.25 M275 24.25 C275 36.26, 275 48.28, 275 72.75 M275 24.25 C275 35.83, 275 47.41, 275 72.75 M275 72.75 C275 88.92, 266.92 97, 250.75 97 M275 72.75 C275 88.92, 266.92 97, 250.75 97 M250.75 97 C204.91 97, 159.07 97, 24.25 97 M250.75 97 C163.79 97, 76.83 97, 24.25 97 M24.25 97 C8.08 97, 0 88.92, 0 72.75 M24.25 97 C8.08 97, 0 88.92, 0 72.75 M0 72.75 C0 54.85, 0 36.94, 0 24.25 M0 72.75 C0 55.09, 0 37.42, 0 24.25 M0 24.25 C0 8.08, 8.08 0, 24.25 0 M0 24.25 C0 8.08, 8.08 0, 24.25 0" stroke="#000000" stroke-width="1" fill="none"></path></g><g transform="translate(1148.9375 1638.4714285714285) rotate(0 126.5625 21.600000000000023)"><text x="126.5625" y="0" font-family="Cascadia, Segoe UI Emoji" font-size="36px" fill="#000000" text-anchor="middle" style="white-space: pre;" direction="ltr" dominant-baseline="text-before-edge">text content</text></g><g transform="translate(1133 669.5714285714286) rotate(0 158.203125 21.600000000000023)"><text x="0" y="0" font-family="Cascadia, Segoe UI Emoji" font-size="36px" fill="#000000" text-anchor="start" style="white-space: pre;" direction="ltr" dominant-baseline="text-before-edge">"Angular Guide"</text></g><g transform="translate(1157 923.5714285714286) rotate(0 390.234375 21.600000000000023)"><text x="0" y="0" font-family="Cascadia, Segoe UI Emoji" font-size="36px" fill="#000000" text-anchor="start" style="white-space: pre;" direction="ltr" dominant-baseline="text-before-edge">"Code for the Angular Guide Tutorial"</text></g><g transform="translate(1464 1635.5714285714284) rotate(0 42.1875 21.600000000000023)"><text x="0" y="0" font-family="Cascadia, Segoe UI Emoji" font-size="36px" fill="#000000" text-anchor="start" style="white-space: pre;" direction="ltr" dominant-baseline="text-before-edge">Home</text></g><g stroke-linecap="round" transform="translate(494.99999999999994 1747.5714285714284) rotate(0 137.5 48.5)"><path d="M24.25 0 M24.25 0 C107.8 0, 191.36 0, 250.75 0 M24.25 0 C110.3 0, 196.34 0, 250.75 0 M250.75 0 C266.92 0, 275 8.08, 275 24.25 M250.75 0 C266.92 0, 275 8.08, 275 24.25 M275 24.25 C275 39.18, 275 54.1, 275 72.75 M275 24.25 C275 35, 275 45.76, 275 72.75 M275 72.75 C275 88.92, 266.92 97, 250.75 97 M275 72.75 C275 88.92, 266.92 97, 250.75 97 M250.75 97 C193.18 97, 135.61 97, 24.25 97 M250.75 97 C190.76 97, 130.76 97, 24.25 97 M24.25 97 C8.08 97, 0 88.92, 0 72.75 M24.25 97 C8.08 97, 0 88.92, 0 72.75 M0 72.75 C0 55.92, 0 39.08, 0 24.25 M0 72.75 C0 54.46, 0 36.18, 0 24.25 M0 24.25 C0 8.08, 8.08 0, 24.25 0 M0 24.25 C0 8.08, 8.08 0, 24.25 0" stroke="#000000" stroke-width="1" fill="none"></path></g><g transform="translate(590.3125 1774.4714285714285) rotate(0 42.1875 21.600000000000023)"><text x="42.1875" y="0" font-family="Cascadia, Segoe UI Emoji" font-size="36px" fill="#000000" text-anchor="middle" style="white-space: pre;" direction="ltr" dominant-baseline="text-before-edge">Main</text></g><g stroke-linecap="round" transform="translate(716 1875.5714285714284) rotate(0 137.5 48.5)"><path d="M24.25 0 M24.25 0 C78.31 0, 132.38 0, 250.75 0 M24.25 0 C78.26 0, 132.28 0, 250.75 0 M250.75 0 C266.92 0, 275 8.08, 275 24.25 M250.75 0 C266.92 0, 275 8.08, 275 24.25 M275 24.25 C275 37.54, 275 50.83, 275 72.75 M275 24.25 C275 42.68, 275 61.11, 275 72.75 M275 72.75 C275 88.92, 266.92 97, 250.75 97 M275 72.75 C275 88.92, 266.92 97, 250.75 97 M250.75 97 C186.71 97, 122.67 97, 24.25 97 M250.75 97 C198.1 97, 145.46 97, 24.25 97 M24.25 97 C8.08 97, 0 88.92, 0 72.75 M24.25 97 C8.08 97, 0 88.92, 0 72.75 M0 72.75 C0 61.87, 0 50.99, 0 24.25 M0 72.75 C0 56.35, 0 39.94, 0 24.25 M0 24.25 C0 8.08, 8.08 0, 24.25 0 M0 24.25 C0 8.08, 8.08 0, 24.25 0" stroke="#000000" stroke-width="1" fill="none"></path></g><g transform="translate(842.953125 1902.4714285714285) rotate(0 10.546875 21.59999999999991)"><text x="10.546875" y="0" font-family="Cascadia, Segoe UI Emoji" font-size="36px" fill="#000000" text-anchor="middle" style="white-space: pre;" direction="ltr" dominant-baseline="text-before-edge">p</text></g><g stroke-linecap="round" transform="translate(854 2013.5714285714284) rotate(0 137.5 48.5)"><path d="M24.25 0 M24.25 0 C94.16 0, 164.08 0, 250.75 0 M24.25 0 C100.33 0, 176.41 0, 250.75 0 M250.75 0 C266.92 0, 275 8.08, 275 24.25 M250.75 0 C266.92 0, 275 8.08, 275 24.25 M275 24.25 C275 41.06, 275 57.88, 275 72.75 M275 24.25 C275 40.4, 275 56.55, 275 72.75 M275 72.75 C275 88.92, 266.92 97, 250.75 97 M275 72.75 C275 88.92, 266.92 97, 250.75 97 M250.75 97 C177.3 97, 103.85 97, 24.25 97 M250.75 97 C198.5 97, 146.25 97, 24.25 97 M24.25 97 C8.08 97, 0 88.92, 0 72.75 M24.25 97 C8.08 97, 0 88.92, 0 72.75 M0 72.75 C0 53.77, 0 34.79, 0 24.25 M0 72.75 C0 54.11, 0 35.47, 0 24.25 M0 24.25 C0 8.08, 8.08 0, 24.25 0 M0 24.25 C0 8.08, 8.08 0, 24.25 0" stroke="#000000" stroke-width="1" fill="none"></path></g><g transform="translate(864.9375 2040.4714285714285) rotate(0 126.5625 21.59999999999991)"><text x="126.5625" y="0" font-family="Cascadia, Segoe UI Emoji" font-size="36px" fill="#000000" text-anchor="middle" style="white-space: pre;" direction="ltr" dominant-baseline="text-before-edge">text content</text></g><g transform="translate(1180 2037.5714285714284) rotate(0 284.765625 21.59999999999991)"><text x="0" y="0" font-family="Cascadia, Segoe UI Emoji" font-size="36px" fill="#000000" text-anchor="start" style="white-space: pre;" direction="ltr" dominant-baseline="text-before-edge">Our cool stuff will go here</text></g><g stroke-linecap="round"><g transform="translate(412.99999999999994 285.57142857142856) rotate(0 0 755)"><path d="M0 0 C0 251.67, 0 1258.33, 0 1510 M0 0 C0 251.67, 0 1258.33, 0 1510" stroke="#000000" stroke-width="1" fill="none"></path></g></g><mask></mask><g stroke-linecap="round"><g transform="translate(413.99999999999994 384.57142857142856) rotate(0 36 -1)"><path d="M0 0 C12 -0.33, 60 -1.67, 72 -2 M0 0 C12 -0.33, 60 -1.67, 72 -2" stroke="#000000" stroke-width="1" fill="none"></path></g><g transform="translate(413.99999999999994 384.57142857142856) rotate(0 36 -1)"><path d="M72 -2 L58.59 4.71 L58.23 -7.96 L72 -2" stroke="none" stroke-width="0" fill="#000000" fill-rule="evenodd"></path><path d="M72 -2 C67.46 0.27, 62.92 2.55, 58.59 4.71 M72 -2 C68.22 -0.11, 64.45 1.78, 58.59 4.71 M58.59 4.71 C58.5 1.74, 58.42 -1.24, 58.23 -7.96 M58.59 4.71 C58.46 0.18, 58.33 -4.35, 58.23 -7.96 M58.23 -7.96 C61.11 -6.71, 63.99 -5.47, 72 -2 M58.23 -7.96 C62.83 -5.97, 67.43 -3.98, 72 -2 M72 -2 C72 -2, 72 -2, 72 -2 M72 -2 C72 -2, 72 -2, 72 -2" stroke="#000000" stroke-width="1" fill="none"></path></g></g><mask></mask><g stroke-linecap="round"><g transform="translate(411.99999999999994 1101.5714285714284) rotate(0 36 0)"><path d="M0 0 C12 0, 60 0, 72 0 M0 0 C12 0, 60 0, 72 0" stroke="#000000" stroke-width="1" fill="none"></path></g><g transform="translate(411.99999999999994 1101.5714285714284) rotate(0 36 0)"><path d="M72 0 L58.41 6.34 L58.41 -6.34 L72 0" stroke="none" stroke-width="0" fill="#000000" fill-rule="evenodd"></path><path d="M72 0 C67.9 1.91, 63.8 3.82, 58.41 6.34 M72 0 C69.2 1.3, 66.41 2.61, 58.41 6.34 M58.41 6.34 C58.41 3.53, 58.41 0.72, 58.41 -6.34 M58.41 6.34 C58.41 1.48, 58.41 -3.38, 58.41 -6.34 M58.41 -6.34 C62.98 -4.21, 67.55 -2.08, 72 0 M58.41 -6.34 C62.66 -4.35, 66.92 -2.37, 72 0 M72 0 C72 0, 72 0, 72 0 M72 0 C72 0, 72 0, 72 0" stroke="#000000" stroke-width="1" fill="none"></path></g></g><mask></mask><g stroke-linecap="round"><g transform="translate(410.99999999999994 1792.5714285714284) rotate(0 39.5 0)"><path d="M0 0 C13.17 0, 65.83 0, 79 0 M0 0 C13.17 0, 65.83 0, 79 0" stroke="#000000" stroke-width="1" fill="none"></path></g><g transform="translate(410.99999999999994 1792.5714285714284) rotate(0 39.5 0)"><path d="M79 0 L65.41 6.34 L65.41 -6.34 L79 0" stroke="none" stroke-width="0" fill="#000000" fill-rule="evenodd"></path><path d="M79 0 C76.17 1.32, 73.33 2.64, 65.41 6.34 M79 0 C75.83 1.48, 72.66 2.96, 65.41 6.34 M65.41 6.34 C65.41 2.42, 65.41 -1.51, 65.41 -6.34 M65.41 6.34 C65.41 2.77, 65.41 -0.8, 65.41 -6.34 M65.41 -6.34 C68.54 -4.88, 71.66 -3.42, 79 0 M65.41 -6.34 C69.32 -4.51, 73.24 -2.68, 79 0 M79 0 C79 0, 79 0, 79 0 M79 0 C79 0, 79 0, 79 0" stroke="#000000" stroke-width="1" fill="none"></path></g></g><mask></mask><g stroke-linecap="round"><g transform="translate(614 1144.5714285714284) rotate(0 1 46.5)"><path d="M0 0 C0.33 15.5, 1.67 77.5, 2 93 M0 0 C0.33 15.5, 1.67 77.5, 2 93" stroke="#000000" stroke-width="1" fill="none"></path></g></g><mask></mask><g stroke-linecap="round"><g transform="translate(617 1235.5714285714284) rotate(0 45 0.5)"><path d="M0 0 C15 0.17, 75 0.83, 90 1 M0 0 C15 0.17, 75 0.83, 90 1" stroke="#000000" stroke-width="1" fill="none"></path></g><g transform="translate(617 1235.5714285714284) rotate(0 45 0.5)"><path d="M90 1 L76.34 7.19 L76.48 -5.49 L90 1" stroke="none" stroke-width="0" fill="#000000" fill-rule="evenodd"></path><path d="M90 1 C84.85 3.33, 79.69 5.67, 76.34 7.19 M90 1 C86.77 2.46, 83.54 3.93, 76.34 7.19 M76.34 7.19 C76.38 3.17, 76.42 -0.84, 76.48 -5.49 M76.34 7.19 C76.37 4.37, 76.4 1.55, 76.48 -5.49 M76.48 -5.49 C79.91 -3.84, 83.35 -2.19, 90 1 M76.48 -5.49 C80.12 -3.74, 83.77 -1.99, 90 1 M90 1 C90 1, 90 1, 90 1 M90 1 C90 1, 90 1, 90 1" stroke="#000000" stroke-width="1" fill="none"></path></g></g><mask></mask><g stroke-linecap="round"><g transform="translate(763 1290.5714285714284) rotate(0 -0.5 47)"><path d="M0 0 C-0.17 15.67, -0.83 78.33, -1 94 M0 0 C-0.17 15.67, -0.83 78.33, -1 94" stroke="#000000" stroke-width="1" fill="none"></path></g></g><mask></mask><g stroke-linecap="round"><g transform="translate(761 1384.5714285714284) rotate(0 29 0.5)"><path d="M0 0 C9.67 0.17, 48.33 0.83, 58 1 M0 0 C9.67 0.17, 48.33 0.83, 58 1" stroke="#000000" stroke-width="1" fill="none"></path></g><g transform="translate(761 1384.5714285714284) rotate(0 29 0.5)"><path d="M58 1 L44.3 7.1 L44.52 -5.57 L58 1" stroke="none" stroke-width="0" fill="#000000" fill-rule="evenodd"></path><path d="M58 1 C52.63 3.39, 47.27 5.78, 44.3 7.1 M58 1 C54.08 2.75, 50.16 4.49, 44.3 7.1 M44.3 7.1 C44.37 2.66, 44.45 -1.78, 44.52 -5.57 M44.3 7.1 C44.36 3.59, 44.42 0.07, 44.52 -5.57 M44.52 -5.57 C47.23 -4.25, 49.95 -2.93, 58 1 M44.52 -5.57 C48.18 -3.78, 51.85 -2, 58 1 M58 1 C58 1, 58 1, 58 1 M58 1 C58 1, 58 1, 58 1" stroke="#000000" stroke-width="1" fill="none"></path></g></g><mask></mask><g stroke-linecap="round"><g transform="translate(896 1438.5714285714284) rotate(0 0 42.5)"><path d="M0 0 C0 14.17, 0 70.83, 0 85 M0 0 C0 14.17, 0 70.83, 0 85" stroke="#000000" stroke-width="1" fill="none"></path></g></g><mask></mask><g stroke-linecap="round"><g transform="translate(896 1521.5714285714284) rotate(0 40 0.5)"><path d="M0 0 C13.33 0.17, 66.67 0.83, 80 1 M0 0 C13.33 0.17, 66.67 0.83, 80 1" stroke="#000000" stroke-width="1" fill="none"></path></g><g transform="translate(896 1521.5714285714284) rotate(0 40 0.5)"><path d="M80 1 L66.33 7.17 L66.49 -5.51 L80 1" stroke="none" stroke-width="0" fill="#000000" fill-rule="evenodd"></path><path d="M80 1 C75.69 2.95, 71.37 4.89, 66.33 7.17 M80 1 C76.83 2.43, 73.65 3.86, 66.33 7.17 M66.33 7.17 C66.38 2.9, 66.43 -1.37, 66.49 -5.51 M66.33 7.17 C66.36 4.63, 66.39 2.08, 66.49 -5.51 M66.49 -5.51 C69.82 -3.9, 73.16 -2.3, 80 1 M66.49 -5.51 C71.63 -3.03, 76.77 -0.56, 80 1 M80 1 C80 1, 80 1, 80 1 M80 1 C80 1, 80 1, 80 1" stroke="#000000" stroke-width="1" fill="none"></path></g></g><mask></mask><g stroke-linecap="round"><g transform="translate(1044 1592.5714285714284) rotate(0 -0.5 39.5)"><path d="M0 0 C-0.17 13.17, -0.83 65.83, -1 79 M0 0 C-0.17 13.17, -0.83 65.83, -1 79" stroke="#000000" stroke-width="1" fill="none"></path></g></g><mask></mask><g stroke-linecap="round"><g transform="translate(1044 1671.5714285714284) rotate(0 42 -0.5)"><path d="M0 0 C14 -0.17, 70 -0.83, 84 -1 M0 0 C14 -0.17, 70 -0.83, 84 -1" stroke="#000000" stroke-width="1" fill="none"></path></g><g transform="translate(1044 1671.5714285714284) rotate(0 42 -0.5)"><path d="M84 -1 L70.48 5.5 L70.33 -7.18 L84 -1" stroke="none" stroke-width="0" fill="#000000" fill-rule="evenodd"></path><path d="M84 -1 C80.31 0.77, 76.63 2.55, 70.48 5.5 M84 -1 C81.21 0.34, 78.42 1.68, 70.48 5.5 M70.48 5.5 C70.44 1.81, 70.39 -1.87, 70.33 -7.18 M70.48 5.5 C70.44 2.24, 70.4 -1.01, 70.33 -7.18 M70.33 -7.18 C74.33 -5.37, 78.33 -3.56, 84 -1 M70.33 -7.18 C73.21 -5.88, 76.08 -4.58, 84 -1 M84 -1 C84 -1, 84 -1, 84 -1 M84 -1 C84 -1, 84 -1, 84 -1" stroke="#000000" stroke-width="1" fill="none"></path></g></g><mask></mask><g stroke-linecap="round"><g transform="translate(611 1846.5714285714284) rotate(0 1 36.5)"><path d="M0 0 C0.33 12.17, 1.67 60.83, 2 73 M0 0 C0.33 12.17, 1.67 60.83, 2 73" stroke="#000000" stroke-width="1" fill="none"></path></g></g><mask></mask><g stroke-linecap="round"><g transform="translate(617 1918.5714285714284) rotate(0 43.5 -1)"><path d="M0 0 C14.5 -0.33, 72.5 -1.67, 87 -2 M0 0 C14.5 -0.33, 72.5 -1.67, 87 -2" stroke="#000000" stroke-width="1" fill="none"></path></g><g transform="translate(617 1918.5714285714284) rotate(0 43.5 -1)"><path d="M87 -2 L73.55 4.65 L73.26 -8.03 L87 -2" stroke="none" stroke-width="0" fill="#000000" fill-rule="evenodd"></path><path d="M87 -2 C83.72 -0.38, 80.44 1.25, 73.55 4.65 M87 -2 C82.17 0.39, 77.34 2.78, 73.55 4.65 M73.55 4.65 C73.47 0.9, 73.38 -2.84, 73.26 -8.03 M73.55 4.65 C73.47 0.75, 73.38 -3.15, 73.26 -8.03 M73.26 -8.03 C78.62 -5.67, 83.98 -3.32, 87 -2 M73.26 -8.03 C77.18 -6.31, 81.09 -4.59, 87 -2 M87 -2 C87 -2, 87 -2, 87 -2 M87 -2 C87 -2, 87 -2, 87 -2" stroke="#000000" stroke-width="1" fill="none"></path></g></g><mask></mask><g stroke-linecap="round"><g transform="translate(771 1974.5714285714284) rotate(0 1 42)"><path d="M0 0 C0.33 14, 1.67 70, 2 84 M0 0 C0.33 14, 1.67 70, 2 84" stroke="#000000" stroke-width="1" fill="none"></path></g></g><mask></mask><g stroke-linecap="round"><g transform="translate(779 2057.5714285714284) rotate(0 27.5 -0.5)"><path d="M0 0 C9.17 -0.17, 45.83 -0.83, 55 -1 M0 0 C9.17 -0.17, 45.83 -0.83, 55 -1" stroke="#000000" stroke-width="1" fill="none"></path></g><g transform="translate(779 2057.5714285714284) rotate(0 27.5 -0.5)"><path d="M55 -1 L41.52 5.59 L41.29 -7.09 L55 -1" stroke="none" stroke-width="0" fill="#000000" fill-rule="evenodd"></path><path d="M55 -1 C51.97 0.48, 48.94 1.96, 41.52 5.59 M55 -1 C51.17 0.87, 47.33 2.75, 41.52 5.59 M41.52 5.59 C41.47 2.74, 41.42 -0.1, 41.29 -7.09 M41.52 5.59 C41.45 1.35, 41.37 -2.89, 41.29 -7.09 M41.29 -7.09 C45.52 -5.21, 49.75 -3.33, 55 -1 M41.29 -7.09 C44.07 -5.86, 46.85 -4.62, 55 -1 M55 -1 C55 -1, 55 -1, 55 -1 M55 -1 C55 -1, 55 -1, 55 -1" stroke="#000000" stroke-width="1" fill="none"></path></g></g><mask></mask><g stroke-linecap="round"><g transform="translate(602 446.57142857142856) rotate(0 -1 191)"><path d="M0 0 C-0.33 63.67, -1.67 318.33, -2 382 M0 0 C-0.33 63.67, -1.67 318.33, -2 382" stroke="#000000" stroke-width="1" fill="none"></path></g></g><mask></mask><g stroke-linecap="round"><g transform="translate(602 542.5714285714286) rotate(0 57 0.5)"><path d="M0 0 C19 0.17, 95 0.83, 114 1 M0 0 C19 0.17, 95 0.83, 114 1" stroke="#000000" stroke-width="1" fill="none"></path></g><g transform="translate(602 542.5714285714286) rotate(0 57 0.5)"><path d="M114 1 L100.35 7.22 L100.46 -5.46 L114 1" stroke="none" stroke-width="0" fill="#000000" fill-rule="evenodd"></path><path d="M114 1 C110.88 2.42, 107.76 3.84, 100.35 7.22 M114 1 C109.09 3.24, 104.19 5.47, 100.35 7.22 M100.35 7.22 C100.39 3.06, 100.42 -1.11, 100.46 -5.46 M100.35 7.22 C100.37 4.41, 100.4 1.6, 100.46 -5.46 M100.46 -5.46 C104.48 -3.54, 108.5 -1.63, 114 1 M100.46 -5.46 C105.76 -2.93, 111.05 -0.41, 114 1 M114 1 C114 1, 114 1, 114 1 M114 1 C114 1, 114 1, 114 1" stroke="#000000" stroke-width="1" fill="none"></path></g></g><mask></mask><g stroke-linecap="round"><g transform="translate(602 829.5714285714286) rotate(0 50 0)"><path d="M0 0 C16.67 0, 83.33 0, 100 0 M0 0 C16.67 0, 83.33 0, 100 0" stroke="#000000" stroke-width="1" fill="none"></path></g><g transform="translate(602 829.5714285714286) rotate(0 50 0)"><path d="M100 0 L86.41 6.34 L86.41 -6.34 L100 0" stroke="none" stroke-width="0" fill="#000000" fill-rule="evenodd"></path><path d="M100 0 C95.75 1.98, 91.5 3.97, 86.41 6.34 M100 0 C96.56 1.6, 93.12 3.21, 86.41 6.34 M86.41 6.34 C86.41 2.06, 86.41 -2.21, 86.41 -6.34 M86.41 6.34 C86.41 2.22, 86.41 -1.91, 86.41 -6.34 M86.41 -6.34 C89.58 -4.86, 92.75 -3.38, 100 0 M86.41 -6.34 C89.44 -4.93, 92.47 -3.51, 100 0 M100 0 C100 0, 100 0, 100 0 M100 0 C100 0, 100 0, 100 0" stroke="#000000" stroke-width="1" fill="none"></path></g></g><mask></mask><g stroke-linecap="round"><g transform="translate(782 595.5714285714286) rotate(0 -0.5 48)"><path d="M0 0 C-0.17 16, -0.83 80, -1 96 M0 0 C-0.17 16, -0.83 80, -1 96" stroke="#000000" stroke-width="1" fill="none"></path></g></g><mask></mask><g stroke-linecap="round"><g transform="translate(780 689.5714285714286) rotate(0 19.5 1)"><path d="M0 0 C6.5 0.33, 32.5 1.67, 39 2 M0 0 C6.5 0.33, 32.5 1.67, 39 2" stroke="#000000" stroke-width="1" fill="none"></path></g><g transform="translate(780 689.5714285714286) rotate(0 19.5 1)"><path d="M39 2 L25.1 7.63 L25.75 -5.03 L39 2" stroke="none" stroke-width="0" fill="#000000" fill-rule="evenodd"></path><path d="M39 2 C35.35 3.48, 31.7 4.96, 25.1 7.63 M39 2 C34.71 3.74, 30.41 5.48, 25.1 7.63 M25.1 7.63 C25.24 4.87, 25.38 2.11, 25.75 -5.03 M25.1 7.63 C25.28 4.03, 25.47 0.42, 25.75 -5.03 M25.75 -5.03 C30.43 -2.55, 35.1 -0.07, 39 2 M25.75 -5.03 C28.58 -3.53, 31.41 -2.02, 39 2 M39 2 C39 2, 39 2, 39 2 M39 2 C39 2, 39 2, 39 2" stroke="#000000" stroke-width="1" fill="none"></path></g></g><mask></mask><g stroke-linecap="round"><g transform="translate(789 873.5714285714286) rotate(0 -1 42)"><path d="M0 0 C-0.33 14, -1.67 70, -2 84 M0 0 C-0.33 14, -1.67 70, -2 84" stroke="#000000" stroke-width="1" fill="none"></path></g></g><mask></mask><g stroke-linecap="round"><g transform="translate(789 959.5714285714286) rotate(0 21 0.5)"><path d="M0 0 C7 0.17, 35 0.83, 42 1 M0 0 C7 0.17, 35 0.83, 42 1" stroke="#000000" stroke-width="1" fill="none"></path></g><g transform="translate(789 959.5714285714286) rotate(0 21 0.5)"><path d="M42 1 L28.26 7.01 L28.56 -5.66 L42 1" stroke="none" stroke-width="0" fill="#000000" fill-rule="evenodd"></path><path d="M42 1 C38.93 2.34, 35.86 3.69, 28.26 7.01 M42 1 C36.98 3.2, 31.96 5.39, 28.26 7.01 M28.26 7.01 C28.34 3.41, 28.43 -0.19, 28.56 -5.66 M28.26 7.01 C28.33 3.99, 28.4 0.97, 28.56 -5.66 M28.56 -5.66 C33.22 -3.35, 37.88 -1.04, 42 1 M28.56 -5.66 C32.37 -3.78, 36.17 -1.89, 42 1 M42 1 C42 1, 42 1, 42 1 M42 1 C42 1, 42 1, 42 1" stroke="#000000" stroke-width="1" fill="none"></path></g></g><mask></mask><g stroke-linecap="round" transform="translate(275.7142857142857 177.14285714285708) rotate(0 137.5 48.5)"><path d="M24.25 0 M24.25 0 C108.08 0, 191.92 0, 250.75 0 M24.25 0 C100.61 0, 176.97 0, 250.75 0 M250.75 0 C266.92 0, 275 8.08, 275 24.25 M250.75 0 C266.92 0, 275 8.08, 275 24.25 M275 24.25 C275 39.84, 275 55.44, 275 72.75 M275 24.25 C275 43, 275 61.75, 275 72.75 M275 72.75 C275 88.92, 266.92 97, 250.75 97 M275 72.75 C275 88.92, 266.92 97, 250.75 97 M250.75 97 C177.5 97, 104.24 97, 24.25 97 M250.75 97 C175.45 97, 100.14 97, 24.25 97 M24.25 97 C8.08 97, 0 88.92, 0 72.75 M24.25 97 C8.08 97, 0 88.92, 0 72.75 M0 72.75 C0 60.18, 0 47.6, 0 24.25 M0 72.75 C0 60.19, 0 47.64, 0 24.25 M0 24.25 C0 8.08, 8.08 0, 24.25 0 M0 24.25 C0 8.08, 8.08 0, 24.25 0" stroke="#000000" stroke-width="1" fill="none"></path></g><g transform="translate(371.0267857142857 204.04285714285706) rotate(0 42.1875 21.599999999999994)"><text x="42.1875" y="0" font-family="Cascadia, Segoe UI Emoji" font-size="36px" fill="#000000" text-anchor="middle" style="white-space: pre;" direction="ltr" dominant-baseline="text-before-edge">Body</text></g><g stroke-linecap="round"><g transform="translate(126.285714285714 105.71428571428592) rotate(0 0 57.14285714285714)"><path d="M0 0 C0 19.05, 0 95.24, 0 114.29 M0 0 C0 19.05, 0 95.24, 0 114.29" stroke="#000000" stroke-width="1" fill="none"></path></g></g><mask></mask><g stroke-linecap="round"><g transform="translate(127.71428571428544 217.1428571428573) rotate(0 71.42857142857136 0)"><path d="M0 0 C23.81 0, 119.05 0, 142.86 0 M0 0 C23.81 0, 119.05 0, 142.86 0" stroke="#000000" stroke-width="1" fill="none"></path></g><g transform="translate(127.71428571428544 217.1428571428573) rotate(0 71.42857142857136 0)"><path d="M142.86 0 L129.26 6.34 L129.26 -6.34 L142.86 0" stroke="none" stroke-width="0" fill="#000000" fill-rule="evenodd"></path><path d="M142.86 0 C138.73 1.93, 134.6 3.85, 129.26 6.34 M142.86 0 C139.72 1.46, 136.59 2.92, 129.26 6.34 M129.26 6.34 C129.26 1.56, 129.26 -3.21, 129.26 -6.34 M129.26 6.34 C129.26 2.7, 129.26 -0.95, 129.26 -6.34 M129.26 -6.34 C133.72 -4.26, 138.18 -2.18, 142.86 0 M129.26 -6.34 C132.6 -4.78, 135.93 -3.23, 142.86 0 M142.86 0 C142.86 0, 142.86 0, 142.86 0 M142.86 0 C142.86 0, 142.86 0, 142.86 0" stroke="#000000" stroke-width="1" fill="none"></path></g></g><mask></mask></svg>